# xmcd
#
# Track frame offsets: 
#        150
#        17035
#        31281
#        41871
#        53535
#        64004
#        77264
#        90170
#        103007
#        113903
#
# Disc length: 1677 seconds
#
# Revision: 1
# Processed by: cddbd v1.5.1PL0 Copyright (c) Steve Scherf et al.
# Submitted via: ExactAudioCopy v0.90b4
#
DISCID=6c068b0a
DTITLE=George Jones - Bartender's Blues
DYEAR=1996
DGENRE=Country
TTITLE0=Bartender's Blues (Vocal Acc By James Taylor)
TTITLE1=I'll Just Take It Out In Love
TTITLE2=If You Loved A Liar (You'd Hug My Neck)
TTITLE3=Ain't Your Memory Got No Pride At All
TTITLE4=I Gave It All Up For You
TTITLE5=I Don't Want No Stranger Sleepin' In My Bed
TTITLE6=I Ain't Got No Business Doin' Business Today
TTITLE7=Leaving Love All Over The Place
TTITLE8=(When Your Phone Don't Ring) It'll Be Me
TTITLE9=Julianne
EXTD=
EXTT0=
EXTT1=
EXTT2=
EXTT3=
EXTT4=
EXTT5=
EXTT6=
EXTT7=
EXTT8=
EXTT9=
PLAYORDER=
